<svg id="Слой_1" data-name="Слой 1" xmlns="http://www.w3.org/2000/svg" viewBox="0 0 178 259"><defs><style>.cls-1,.cls-10,.cls-11,.cls-2,.cls-3,.cls-4,.cls-5,.cls-6,.cls-7,.cls-8,.cls-9{fill:none;stroke-miterlimit:10;}.cls-1,.cls-2,.cls-3,.cls-4,.cls-5,.cls-6,.cls-9{stroke:#ebebeb;}.cls-1{stroke-width:12px;}.cls-2{stroke-width:20px;}.cls-4{stroke-width:14px;}.cls-5{stroke-width:8px;}.cls-6{stroke-width:15px;}.cls-7{stroke:#c5c5c5;}.cls-7,.cls-8{stroke-width:2px;}.cls-10,.cls-11,.cls-8{stroke:#dfdfdf;}.cls-9{stroke-width:23px;}.cls-10{stroke-width:10px;}.cls-11{stroke-width:6px;}</style></defs><title>NDI last last last 3</title><line class="cls-1" x1="6.86" y1="63.52" x2="170.92" y2="63.52"/><line class="cls-1" x1="6.86" y1="38.81" x2="170.92" y2="38.81"/><line class="cls-2" x1="51.96" y1="216.17" x2="51.96" y2="240.11"/><line class="cls-2" x1="125.95" y1="216.17" x2="125.95" y2="240.11"/><line class="cls-1" x1="88.89" y1="216.17" x2="88.89" y2="240.11"/><line class="cls-3" x1="72.51" y1="216.17" x2="72.51" y2="240.11"/><line class="cls-3" x1="106.17" y1="216.17" x2="106.17" y2="240.11"/><line class="cls-4" x1="6.86" y1="187.03" x2="170.92" y2="187.03"/><line class="cls-1" x1="6.86" y1="162.33" x2="170.92" y2="162.33"/><line class="cls-4" x1="6.86" y1="211.74" x2="170.92" y2="211.74"/><line class="cls-1" x1="6.86" y1="187.03" x2="170.92" y2="187.03"/><line class="cls-1" x1="6.86" y1="236.44" x2="44.56" y2="236.44"/><line class="cls-1" x1="133.21" y1="236.44" x2="170.91" y2="236.44"/><line class="cls-1" x1="6.86" y1="211.74" x2="170.92" y2="211.74"/><line class="cls-1" x1="6.86" y1="137.63" x2="170.92" y2="137.63"/><line class="cls-1" x1="6.86" y1="112.92" x2="170.92" y2="112.92"/><line class="cls-1" x1="6.86" y1="88.22" x2="170.92" y2="88.22"/><line class="cls-5" x1="4.03" y1="4.31" x2="4.03" y2="258.72"/><line class="cls-5" x1="173.74" y1="4.31" x2="173.74" y2="258.72"/><line class="cls-6" x1="6.86" y1="11.85" x2="170.92" y2="11.85"/><line class="cls-7" x1="6.86" x2="6.86" y2="231.1"/><line class="cls-7" x1="16.3" x2="16.3" y2="231.1"/><line class="cls-7" x1="25.7" x2="25.7" y2="231.1"/><line class="cls-7" x1="35.16" x2="35.16" y2="231.1"/><line class="cls-7" x1="44.56" x2="44.56" y2="231.1"/><line class="cls-7" x1="48.98" x2="48.98" y2="208.91"/><line class="cls-7" x1="58.42" x2="58.42" y2="208.91"/><line class="cls-7" x1="67.82" x2="67.82" y2="208.91"/><line class="cls-7" x1="77.28" x2="77.28" y2="208.91"/><line class="cls-7" x1="86.68" x2="86.68" y2="208.91"/><line class="cls-7" x1="91.1" x2="91.1" y2="208.91"/><line class="cls-7" x1="100.54" x2="100.54" y2="208.91"/><line class="cls-7" x1="109.94" x2="109.94" y2="208.91"/><line class="cls-7" x1="119.4" x2="119.4" y2="208.91"/><line class="cls-7" x1="128.8" x2="128.8" y2="208.91"/><line class="cls-7" x1="133.21" x2="133.21" y2="231.1"/><line class="cls-7" x1="142.65" x2="142.65" y2="231.1"/><line class="cls-7" x1="152.05" x2="152.05" y2="231.1"/><line class="cls-7" x1="161.51" x2="161.51" y2="231.1"/><line class="cls-7" x1="170.91" x2="170.91" y2="231.1"/><line class="cls-8" x1="48.98" y1="240.71" x2="128.8" y2="240.71"/><line class="cls-8" x1="48.98" y1="243.38" x2="128.8" y2="243.38"/><line class="cls-8" x1="48.98" y1="246.34" x2="128.8" y2="246.34"/><line class="cls-8" x1="48.98" y1="249.3" x2="128.8" y2="249.3"/><line class="cls-8" x1="48.98" y1="252.25" x2="128.8" y2="252.25"/><line class="cls-8" x1="48.98" y1="255.21" x2="128.8" y2="255.21"/><line class="cls-8" x1="48.98" y1="258.17" x2="128.8" y2="258.17"/><line class="cls-9" x1="1.2" y1="248.21" x2="44.56" y2="248.21"/><line class="cls-9" x1="133.21" y1="248.21" x2="176.57" y2="248.21"/><line class="cls-10" x1="48.97" y1="214.85" x2="128.8" y2="214.85"/><line class="cls-11" x1="46.77" y1="258.89" x2="46.77" y2="234.44"/><line class="cls-11" x1="131" y1="258.89" x2="131" y2="234.44"/><line class="cls-3" x1="0.5" y1="258.5" x2="177.5" y2="258.5"/></svg>