<svg id="Слой_1" data-name="Слой 1" xmlns="http://www.w3.org/2000/svg" viewBox="0 0 1471 264"><defs><style>.cls-1,.cls-10,.cls-11,.cls-12,.cls-2,.cls-3,.cls-4,.cls-5,.cls-6,.cls-7,.cls-8,.cls-9{fill:none;stroke-miterlimit:10;}.cls-1{stroke:#ededed;stroke-width:4px;}.cls-10,.cls-2,.cls-3,.cls-4,.cls-5,.cls-6,.cls-7{stroke:#ebebeb;}.cls-2{stroke-width:12px;}.cls-3{stroke-width:20px;}.cls-5{stroke-width:14px;}.cls-6{stroke-width:8px;}.cls-7{stroke-width:15px;}.cls-8{stroke:#c5c5c5;}.cls-8,.cls-9{stroke-width:2px;}.cls-11,.cls-12,.cls-9{stroke:#dfdfdf;}.cls-10{stroke-width:23px;}.cls-11{stroke-width:10px;}.cls-12{stroke-width:6px;}</style></defs><title>NDI last last last 3</title><line class="cls-1" y1="260.5" x2="1471" y2="260.5"/><line class="cls-2" x1="1239.86" y1="63.52" x2="1403.92" y2="63.52"/><line class="cls-2" x1="1239.86" y1="38.81" x2="1403.92" y2="38.81"/><line class="cls-3" x1="1284.96" y1="216.17" x2="1284.96" y2="240.11"/><line class="cls-3" x1="1358.95" y1="216.17" x2="1358.95" y2="240.11"/><line class="cls-2" x1="1321.89" y1="216.17" x2="1321.89" y2="240.11"/><line class="cls-4" x1="1305.51" y1="216.17" x2="1305.51" y2="240.11"/><line class="cls-4" x1="1339.17" y1="216.17" x2="1339.17" y2="240.11"/><line class="cls-5" x1="1239.86" y1="187.03" x2="1403.92" y2="187.03"/><line class="cls-2" x1="1239.86" y1="162.33" x2="1403.92" y2="162.33"/><line class="cls-5" x1="1239.86" y1="211.74" x2="1403.92" y2="211.74"/><line class="cls-2" x1="1239.86" y1="187.03" x2="1403.92" y2="187.03"/><line class="cls-2" x1="1239.86" y1="236.44" x2="1277.56" y2="236.44"/><line class="cls-2" x1="1366.21" y1="236.44" x2="1403.91" y2="236.44"/><line class="cls-2" x1="1239.86" y1="211.74" x2="1403.92" y2="211.74"/><line class="cls-2" x1="1239.86" y1="137.63" x2="1403.92" y2="137.63"/><line class="cls-2" x1="1239.86" y1="112.92" x2="1403.92" y2="112.92"/><line class="cls-2" x1="1239.86" y1="88.22" x2="1403.92" y2="88.22"/><line class="cls-6" x1="1237.03" y1="4.31" x2="1237.03" y2="258.72"/><line class="cls-6" x1="1406.74" y1="4.31" x2="1406.74" y2="258.72"/><line class="cls-7" x1="1239.86" y1="11.85" x2="1403.92" y2="11.85"/><line class="cls-8" x1="1239.86" x2="1239.86" y2="231.1"/><line class="cls-8" x1="1249.3" x2="1249.3" y2="231.1"/><line class="cls-8" x1="1258.7" x2="1258.7" y2="231.1"/><line class="cls-8" x1="1268.16" x2="1268.16" y2="231.1"/><line class="cls-8" x1="1277.56" x2="1277.56" y2="231.1"/><line class="cls-8" x1="1281.98" x2="1281.98" y2="208.91"/><line class="cls-8" x1="1291.42" x2="1291.42" y2="208.91"/><line class="cls-8" x1="1300.82" x2="1300.82" y2="208.91"/><line class="cls-8" x1="1310.28" x2="1310.28" y2="208.91"/><line class="cls-8" x1="1319.68" x2="1319.68" y2="208.91"/><line class="cls-8" x1="1324.1" x2="1324.1" y2="208.91"/><line class="cls-8" x1="1333.54" x2="1333.54" y2="208.91"/><line class="cls-8" x1="1342.94" x2="1342.94" y2="208.91"/><line class="cls-8" x1="1352.4" x2="1352.4" y2="208.91"/><line class="cls-8" x1="1361.8" x2="1361.8" y2="208.91"/><line class="cls-8" x1="1366.21" x2="1366.21" y2="231.1"/><line class="cls-8" x1="1375.65" x2="1375.65" y2="231.1"/><line class="cls-8" x1="1385.05" x2="1385.05" y2="231.1"/><line class="cls-8" x1="1394.51" x2="1394.51" y2="231.1"/><line class="cls-8" x1="1403.91" x2="1403.91" y2="231.1"/><line class="cls-9" x1="1281.98" y1="240.71" x2="1361.8" y2="240.71"/><line class="cls-9" x1="1281.98" y1="243.38" x2="1361.8" y2="243.38"/><line class="cls-9" x1="1281.98" y1="246.34" x2="1361.8" y2="246.34"/><line class="cls-9" x1="1281.98" y1="249.3" x2="1361.8" y2="249.3"/><line class="cls-9" x1="1281.98" y1="252.25" x2="1361.8" y2="252.25"/><line class="cls-9" x1="1281.98" y1="255.21" x2="1361.8" y2="255.21"/><line class="cls-9" x1="1281.98" y1="258.17" x2="1361.8" y2="258.17"/><line class="cls-10" x1="1234.2" y1="250.21" x2="1277.56" y2="250.21"/><line class="cls-10" x1="1366.21" y1="250.21" x2="1409.57" y2="250.21"/><line class="cls-11" x1="1281.97" y1="214.85" x2="1361.8" y2="214.85"/><line class="cls-12" x1="1279.77" y1="258.89" x2="1279.77" y2="234.44"/><line class="cls-12" x1="1364" y1="258.89" x2="1364" y2="234.44"/></svg>